<svg width="128" height="128" viewBox="0 0 128 128" fill="none" xmlns="http://www.w3.org/2000/svg">
<rect width="128" height="128" rx="20" fill="#F02E65"/>
<path d="M63.7364 100.7C60.9364 100.7 58.0697 100.467 55.1364 100C52.2697 99.6 49.503 99 46.8364 98.2C44.2364 97.4 41.903 96.4 39.8364 95.2C38.3697 94.4 37.3364 93.3667 36.7364 92.1C36.1364 90.7667 35.903 89.4333 36.0364 88.1C36.2364 86.7667 36.7364 85.6 37.5364 84.6C38.403 83.5333 39.4697 82.8667 40.7364 82.6C42.0697 82.2667 43.5364 82.5 45.1364 83.3C47.8697 84.8333 50.8364 85.9667 54.0364 86.7C57.303 87.4333 60.5364 87.8 63.7364 87.8C68.603 87.8 72.0697 87.0667 74.1364 85.6C76.203 84.0667 77.2364 82.1667 77.2364 79.9C77.2364 77.9667 76.503 76.4333 75.0364 75.3C73.5697 74.1667 71.003 73.2 67.3364 72.4L56.0364 70C49.6364 68.6667 44.8697 66.4 41.7364 63.2C38.6697 59.9333 37.1364 55.6667 37.1364 50.4C37.1364 47.0667 37.8364 44.0333 39.2364 41.3C40.6364 38.5667 42.603 36.2 45.1364 34.2C47.6697 32.2 50.6697 30.6667 54.1364 29.6C57.6697 28.5333 61.5364 28 65.7364 28C69.4697 28 73.1364 28.4667 76.7364 29.4C80.3364 30.2667 83.503 31.5667 86.2364 33.3C87.5697 34.1 88.4697 35.1333 88.9364 36.4C89.4697 37.6 89.6364 38.8333 89.4364 40.1C89.303 41.3 88.803 42.3667 87.9364 43.3C87.1364 44.2333 86.103 44.8333 84.8364 45.1C83.5697 45.3667 82.0364 45.0667 80.2364 44.2C78.0364 43.0667 75.703 42.2333 73.2364 41.7C70.7697 41.1667 68.2364 40.9 65.6364 40.9C62.8364 40.9 60.4364 41.2667 58.4364 42C56.503 42.7333 55.003 43.7667 53.9364 45.1C52.9364 46.4333 52.4364 47.9667 52.4364 49.7C52.4364 51.6333 53.1364 53.2 54.5364 54.4C55.9364 55.6 58.3697 56.5667 61.8364 57.3L73.1364 59.7C79.6697 61.1 84.5364 63.3667 87.7364 66.5C90.9364 69.5667 92.5364 73.6333 92.5364 78.7C92.5364 82.0333 91.8697 85.0667 90.5364 87.8C89.203 90.4667 87.2697 92.7667 84.7364 94.7C82.203 96.6333 79.1697 98.1333 75.6364 99.2C72.103 100.2 68.1364 100.7 63.7364 100.7Z" fill="white"/>
</svg>
